<svg width="68" height="68" fill="none" xmlns="http://www.w3.org/2000/svg"><circle cx="34" cy="34" r="34" fill="#F3FCFF"/><g clip-path="url(#a)" fill="#67D7C1"><path d="M19.773 21.177a7.232 7.232 0 0 0-1.067 7.503l-.14.141a.996.996 0 0 0 .704 1.7c.254 0 1.35-.938 1.35-.938l8.473-8.473.647-.646a.996.996 0 1 0-1.409-1.41l-.14.142a7.238 7.238 0 0 0-6.94.642l-2.546-2.546a.996.996 0 1 0-1.409 1.408l2.477 2.477ZM39.511 45.09c.55 0 .996-.446.996-.996v-1.992H27.493v1.992c0 .55.446.996.996.996H39.51ZM50.003 36.126h-4.914a.999.999 0 0 0-.996.996.998.998 0 0 0-.996-.996H26.762a.998.998 0 0 0-.996.996.999.999 0 0 0-.996-.996h-6.773a.999.999 0 0 0-.996.996v1.992c0 .55.446.996.996.996h32.006c.55 0 .996-.446.996-.996v-1.992a.999.999 0 0 0-.996-.996ZM42.134 49.008h-4.482v-1.926h-7.304v1.926H25.4a.996.996 0 0 0 0 1.992h16.733a.996.996 0 0 0 0-1.992Z"/></g><defs><clipPath id="a"><path fill="#fff" transform="translate(17 17)" d="M0 0h34v34H0z"/></clipPath></defs></svg>