<svg width="68" height="68" fill="none" xmlns="http://www.w3.org/2000/svg"><circle cx="34" cy="34" r="34" fill="#F3FCFF"/><g clip-path="url(#a)"><path d="M39.88 18.72c.34 0 .616-.276.616-.616v-1.858a.615.615 0 1 0-1.23 0v1.858c0 .34.275.615.615.615Zm-3.026.114a.616.616 0 0 0 1.071-.605l-.78-1.383a.615.615 0 0 0-1.072.605l.78 1.383Zm5.216.233c.29.164.67.066.838-.233l.78-1.383a.615.615 0 1 0-1.071-.605l-.78 1.383a.615.615 0 0 0 .233.838Zm11.827 16.9-4.988-1.662a1.025 1.025 0 0 1-.623-.584l-2.78-6.762a3.065 3.065 0 0 0-2.845-1.906h-.032v-1.108a2.751 2.751 0 0 0-2.748-2.748 2.751 2.751 0 0 0-2.748 2.748v1.108H17.076A3.08 3.08 0 0 0 14 28.129v4.06a.615.615 0 1 0 1.23 0v-4.06c0-1.018.828-1.846 1.846-1.846h15.258v13.29H15.23V35.06a.615.615 0 1 0-1.23 0v9.68a3.08 3.08 0 0 0 3.076 3.076h1.576a5.175 5.175 0 0 0 5.13 4.553 5.175 5.175 0 0 0 5.13-4.553h11.212a5.175 5.175 0 0 0 5.13 4.553 5.175 5.175 0 0 0 5.13-4.553h2.54A3.08 3.08 0 0 0 56 44.74v-5.855c0-1.327-.845-2.5-2.103-2.918ZM23.782 51.139a3.942 3.942 0 0 1-3.937-3.938 3.942 3.942 0 0 1 3.937-3.937A3.942 3.942 0 0 1 27.72 47.2a3.942 3.942 0 0 1-3.938 3.938Zm8.552-4.553h-3.422a5.175 5.175 0 0 0-5.13-4.553 5.175 5.175 0 0 0-5.13 4.553h-1.576a1.848 1.848 0 0 1-1.846-1.846v-3.937h17.104v5.783Zm6.03-22.64c0-.838.68-1.518 1.517-1.518.837 0 1.517.68 1.517 1.517v1.108h-3.035v-1.108Zm6.89 27.193a3.942 3.942 0 0 1-3.938-3.938 3.942 3.942 0 0 1 3.938-3.937A3.942 3.942 0 0 1 49.19 47.2a3.942 3.942 0 0 1-3.937 3.938Zm9.516-11.567h-9.385a.615.615 0 1 0 0 1.23h9.385v3.938a1.848 1.848 0 0 1-1.846 1.846h-2.54a5.175 5.175 0 0 0-5.13-4.553 5.175 5.175 0 0 0-5.13 4.553h-6.56v-5.783h8.95a.615.615 0 1 0 0-1.23h-8.95v-13.29h9.097c.752 0 1.422.45 1.707 1.144l2.78 6.762c.25.608.75 1.075 1.372 1.283l4.988 1.662a1.843 1.843 0 0 1 1.261 1.75v.688ZM43.22 28.156a1.02 1.02 0 0 0-.951-.642h-6.45c-.565 0-1.025.46-1.025 1.025v5.701c0 .566.46 1.026 1.025 1.026h8.745c.708.005 1.221-.752.95-1.409l-2.294-5.7Zm-7.196 5.88v-5.292h6.106l2.13 5.291h-8.236Zm9.229 11.32a1.848 1.848 0 0 0-1.846 1.845c0 1.018.828 1.846 1.846 1.846A1.848 1.848 0 0 0 47.1 47.2a1.848 1.848 0 0 0-1.846-1.846Zm0 2.46a.616.616 0 1 1 .001-1.231.616.616 0 0 1-.001 1.231ZM24.52 27.514h-1.477c-.61 0-1.108.496-1.108 1.107v2.461h-2.46c-.611 0-1.108.497-1.108 1.107v1.477c0 .61.497 1.107 1.108 1.107h2.46v2.461c0 .611.497 1.108 1.108 1.108h1.476c.611 0 1.108-.497 1.108-1.108v-2.46h2.46c.611 0 1.108-.497 1.108-1.108v-1.477c0-.61-.497-1.107-1.107-1.107h-2.461v-2.46c0-.612-.497-1.108-1.108-1.108Zm3.445 4.799v1.23h-2.707a.862.862 0 0 0-.861.861v2.707h-1.231v-2.707a.862.862 0 0 0-.861-.861h-2.707v-1.23h2.707a.862.862 0 0 0 .861-.862v-2.707h1.23v2.707c0 .475.387.861.862.861h2.707Zm-4.184 13.042a1.848 1.848 0 0 0-1.846 1.846c0 1.018.829 1.846 1.846 1.846a1.848 1.848 0 0 0 1.846-1.846 1.848 1.848 0 0 0-1.846-1.846Zm0 2.461a.616.616 0 1 1 .002-1.231.616.616 0 0 1-.002 1.231Z" fill="#67D7C1"/></g><defs><clipPath id="a"><path fill="#fff" transform="translate(14 13)" d="M0 0h42v42H0z"/></clipPath></defs></svg>