<svg width="68" height="68" fill="none" xmlns="http://www.w3.org/2000/svg"><circle cx="34" cy="34" r="34" fill="#fff"/><path d="M28.629 28.838a.54.54 0 0 1-.39-.167c-.541-.563-2.307-2.576-2.388-4.837a.54.54 0 0 1 .13-.37.508.508 0 0 0 .114-.275c-.004-.029-.054-.066-.072-.081a.54.54 0 0 1-.224-.464c.02-.406.19-.791.476-1.08a1.958 1.958 0 0 0-.183-.235.54.54 0 0 1-.065-.653l.18-.289c.064-.494.364-2.162 1.567-2.977a2.811 2.811 0 0 1 2.162-.39c.29-.681.77-1.263 1.384-1.676 1.123-.753 2.636-.947 4.498-.576 4.753.95 5.877 2.68 6.48 3.808.414.17.756.48.968.874.15.312.19.664.116 1.001.376.382.635.863.747 1.387.192.84.085 4.714-2.424 6.72a.54.54 0 0 1-.871-.501c.03-.213.056-.422.076-.628a3.073 3.073 0 0 0-3.018-3.357 9.008 9.008 0 0 1-4.115-1.13l-.129-.067a3.035 3.035 0 0 0-2.995.105 3.066 3.066 0 0 0-1.484 2.642v2.675a.54.54 0 0 1-.54.54Zm-1.687-4.87a6.145 6.145 0 0 0 1.146 2.811v-1.157a4.157 4.157 0 0 1 6.054-3.704l.143.075a7.946 7.946 0 0 0 3.622 1.002 4.154 4.154 0 0 1 4.069 3.676 7.629 7.629 0 0 0 1.093-4.61 1.976 1.976 0 0 0-.638-1.018.543.543 0 0 1-.162-.623.559.559 0 0 0 .026-.491.995.995 0 0 0-.53-.398.54.54 0 0 1-.33-.27c-.527-1.009-1.32-2.53-5.826-3.43-1.568-.311-2.808-.174-3.68.413-.54.359-.93.9-1.103 1.524a.54.54 0 0 1-.69.412 1.963 1.963 0 0 0-1.748.123c-.965.649-1.116 2.294-1.117 2.311a.544.544 0 0 1-.08.24l-.041.068c.205.257.3.585.266.913a.757.757 0 0 1-.432.54.273.273 0 0 0-.057.108c.134.165.218.365.243.576.027.32-.053.64-.228.91Zm-.428-2.563-.016.008.015-.008Z" fill="#67D7C1"/><path d="M35.014 37.629c-2.142-.058-3.583-1.581-4.977-3.054-.15-.158-.299-.316-.448-.471a5.582 5.582 0 0 1-1.5-3.975v-1.992a.54.54 0 1 1 1.081 0v2.031a4.564 4.564 0 0 0 1.198 3.183c.152.158.303.318.454.478 1.298 1.374 2.528 2.671 4.192 2.717 1.635-.046 2.865-1.343 4.162-2.717l.454-.478a4.554 4.554 0 0 0 1.2-3.149v-2.067a.54.54 0 1 1 1.081 0v2.031a5.568 5.568 0 0 1-1.5 3.936c-.15.155-.3.313-.448.47-1.395 1.476-2.837 2.999-4.949 3.057Z" fill="#67D7C1"/><path d="M28.388 30.892c-1.104 0-2-1.081-2-2.409a2.61 2.61 0 0 1 .805-1.934.54.54 0 1 1 .72.806 1.518 1.518 0 0 0-.444 1.128c0 .77.508 1.406 1.022 1.32a.54.54 0 0 1 .18 1.066 1.728 1.728 0 0 1-.283.023ZM41.61 30.892c-.094 0-.188-.008-.28-.024a.54.54 0 0 1 .18-1.066c.511.087 1.021-.549 1.021-1.319a1.52 1.52 0 0 0-.444-1.128.543.543 0 0 1-.043-.763.54.54 0 0 1 .764-.043 2.614 2.614 0 0 1 .804 1.934c0 1.328-.897 2.409-2.001 2.409ZM32.67 43.162h-.047a.541.541 0 0 1-.407-.246l-2.453-3.824a.54.54 0 0 1 .02-.611l.918-1.25a.54.54 0 0 1 .735-.13l3.865 2.57a.542.542 0 0 1 .094.816l-2.329 2.502a.54.54 0 0 1-.395.173Zm-1.797-4.344 1.877 2.925 1.42-1.527-2.905-1.932-.392.534Z" fill="#67D7C1"/><path d="M37.327 43.162a.542.542 0 0 1-.396-.172l-2.327-2.504a.54.54 0 0 1 .096-.817l3.864-2.572a.54.54 0 0 1 .735.131l.919 1.25a.541.541 0 0 1 .02.611l-2.456 3.825a.542.542 0 0 1-.406.246l-.049.002Zm-1.499-2.946 1.42 1.527 1.877-2.925-.392-.534-2.905 1.932Z" fill="#67D7C1"/><path d="M48.177 53.649H21.282a2 2 0 0 1-2-2v-4.824a7.077 7.077 0 0 1 5.011-6.793l5.87-1.717a.54.54 0 1 1 .302 1.038l-5.86 1.714a6 6 0 0 0-4.241 5.758v4.824a.919.919 0 0 0 .919.919h26.894a.919.919 0 0 0 .92-.92v-5.363a6 6 0 0 0-4.25-5.76l-5.183-1.136a.54.54 0 1 1 .232-1.056l5.226 1.144a7.088 7.088 0 0 1 5.055 6.806v5.366a2 2 0 0 1-2 2Z" fill="#67D7C1"/><path d="M35 40.657a.538.538 0 0 1-.3-.09L30.838 38a.541.541 0 0 1-.235-.533l.355-2.27a.54.54 0 1 1 1.069.166l-.303 1.931L35 39.468l3.278-2.178-.305-1.931a.54.54 0 1 1 1.068-.167l.355 2.27a.54.54 0 0 1-.234.534l-3.866 2.568a.54.54 0 0 1-.296.093ZM46.238 48.605a.556.556 0 0 1-.12-.01l-.88-.2a.54.54 0 1 1 .24-1.054l.352.08.386-1.703a1.999 1.999 0 1 0-3.9-.883l-.386 1.702.352.08a.54.54 0 0 1-.238 1.055l-.882-.202a.54.54 0 0 1-.407-.648l.505-2.23a3.08 3.08 0 0 1 6.042.16c.069.399.058.807-.032 1.202l-.505 2.23a.54.54 0 0 1-.527.421ZM24.794 44.184a.54.54 0 0 1-.527-.424l-.66-2.984a.542.542 0 0 1 .622-.649.542.542 0 0 1 .434.416l.66 2.983a.54.54 0 0 1-.529.658Z" fill="#67D7C1"/><path d="M44.855 43.34a.541.541 0 0 1-.529-.656l.578-2.643a.54.54 0 0 1 1.056.232l-.578 2.643a.541.541 0 0 1-.527.425ZM25.574 47.989a2.523 2.523 0 1 1 0-5.047 2.523 2.523 0 0 1 0 5.047Zm0-3.965a1.443 1.443 0 1 0 0 2.885 1.443 1.443 0 0 0 0-2.885Z" fill="#67D7C1"/><path d="M25.574 46.282a.817.817 0 1 0 0-1.633.817.817 0 0 0 0 1.633Z" fill="#67D7C1"/><path d="M25.574 46.553a1.086 1.086 0 0 1-.77-1.856 1.089 1.089 0 0 1 1.857.768 1.089 1.089 0 0 1-1.087 1.088Zm0-1.634a.547.547 0 1 0-.001 1.094.547.547 0 0 0 .001-1.094Z" fill="#67D7C1"/></svg>