<svg width="68" height="68" fill="none" xmlns="http://www.w3.org/2000/svg"><circle cx="34" cy="34" r="34" fill="#F3FCFF"/><path d="M46.602 25.328h-.47v-.586a1.76 1.76 0 0 0-1.757-1.758 1.76 1.76 0 0 0-1.758 1.758v.586h-1.172V21.93a1.76 1.76 0 0 0-1.758-1.758h-2.079a.586.586 0 0 0 0 1.172h2.08c.323 0 .585.263.585.586v3.398h-1.171v-2.226a.586.586 0 0 0-.586-.586h-7.032a.586.586 0 0 0-.586.586v2.226h-1.171V21.93c0-.323.262-.586.585-.586h2.023a.586.586 0 0 0 0-1.172h-2.023a1.76 1.76 0 0 0-1.757 1.758v3.398h-1.172v-.586a1.76 1.76 0 0 0-1.758-1.758 1.76 1.76 0 0 0-1.758 1.758v.586h-.47A3.402 3.402 0 0 0 20 28.726V44.43a3.402 3.402 0 0 0 3.398 3.398h23.204A3.402 3.402 0 0 0 50 44.43V28.726a3.402 3.402 0 0 0-3.398-3.398Zm-2.813-.586a.587.587 0 0 1 1.172 0v.586h-1.172v-.586ZM32.07 23.687h5.86v1.641h-5.86v-1.64Zm-7.03 1.055a.587.587 0 0 1 1.17 0v.586h-1.17v-.586ZM48.827 44.43a2.228 2.228 0 0 1-2.226 2.226H23.398a2.228 2.228 0 0 1-2.226-2.226V28.726c0-1.227.998-2.226 2.226-2.226h23.204c1.228 0 2.226.999 2.226 2.226V44.43Z" fill="#67D7C1"/><path d="M35 30.442a6.143 6.143 0 0 0-6.136 6.136A6.143 6.143 0 0 0 35 42.714a6.143 6.143 0 0 0 6.136-6.136A6.143 6.143 0 0 0 35 30.442Zm0 11.1a4.97 4.97 0 0 1-4.965-4.964A4.97 4.97 0 0 1 35 31.614a4.97 4.97 0 0 1 4.965 4.964A4.97 4.97 0 0 1 35 41.543Z" fill="#67D7C1"/><path d="M37.167 34.82h-.402v-.401a1.11 1.11 0 0 0-1.109-1.11H34.36a1.11 1.11 0 0 0-1.11 1.11v.401h-.401a1.11 1.11 0 0 0-1.11 1.11v1.297c0 .612.498 1.109 1.11 1.109h.401v.401c0 .612.498 1.11 1.11 1.11h1.297a1.11 1.11 0 0 0 1.11-1.11v-.401h.4a1.11 1.11 0 0 0 1.11-1.11V35.93a1.11 1.11 0 0 0-1.11-1.109Zm-.063 2.344h-.925a.586.586 0 0 0-.586.586v.925h-1.172v-.925a.586.586 0 0 0-.585-.586h-.925v-1.172h.925a.586.586 0 0 0 .586-.586v-.924h1.171v.924c0 .324.263.586.586.586h.925v1.172ZM34.972 21.344a.586.586 0 1 0 0-1.172.586.586 0 0 0 0 1.172Z" fill="#67D7C1"/></svg>